<svg xmlns="http://www.w3.org/2000/svg" width="1920" height="1080"><path d="M-216,-266L-75,-256L472,-254Z" fill="#6080e8" stroke="#6080e8" stroke-width="1.51"/><path d="M-216,-266L472,-254L1281,-273Z" fill="#6e72ed" stroke="#6e72ed" stroke-width="1.51"/><path d="M67,1320L-40,1332L1302,1324Z" fill="#a351ea" stroke="#a351ea" stroke-width="1.51"/><path d="M227,1302L67,1320L1302,1324Z" fill="#a44deb" stroke="#a44deb" stroke-width="1.51"/><path d="M853,1252L462,1269L1302,1324Z" fill="#a837ef" stroke="#a837ef" stroke-width="1.51"/><path d="M462,1269L227,1302L1302,1324Z" fill="#a645ed" stroke="#a645ed" stroke-width="1.51"/><path d="M1302,1324L-40,1332L1778,1353Z" fill="#ad33ef" stroke="#ad33ef" stroke-width="1.51"/><path d="M1972,146L1959,335L2217,415Z" fill="#a348ed" stroke="#a348ed" stroke-width="1.51"/><path d="M2156,1171L2207,1243L2239,904Z" fill="#bc42e5" stroke="#bc42e5" stroke-width="1.51"/><path d="M2223,733L2065,906L2239,904Z" fill="#b43aea" stroke="#b43aea" stroke-width="1.51"/><path d="M2065,906L2156,1171L2239,904Z" fill="#b83ee7" stroke="#b83ee7" stroke-width="1.51"/><path d="M1972,146L2217,415L2243,92Z" fill="#a350eb" stroke="#a350eb" stroke-width="1.51"/><path d="M1855,-227L2072,-196L2258,-175Z" fill="#946be5" stroke="#946be5" stroke-width="1.51"/><path d="M2139,4L2243,92L2258,-175Z" fill="#9d62e6" stroke="#9d62e6" stroke-width="1.51"/><path d="M2072,-196L2139,4L2258,-175Z" fill="#9968e5" stroke="#9968e5" stroke-width="1.51"/><path d="M1970,575L2223,733L2258,517Z" fill="#ac33ee" stroke="#ac33ee" stroke-width="1.51"/><path d="M2217,415L1970,575L2258,517Z" fill="#a935ef" stroke="#a935ef" stroke-width="1.51"/><path d="M2223,733L2239,904L2258,517Z" fill="#b138eb" stroke="#b138eb" stroke-width="1.51"/><path d="M2243,92L2217,415L2258,517Z" fill="#a747eb" stroke="#a747eb" stroke-width="1.51"/><path d="M2258,-175L2243,92L2258,517Z" fill="#a357e8" stroke="#a357e8" stroke-width="1.51"/><path d="M1970,575L1970,729L2223,733Z" fill="#ad33ef" stroke="#ad33ef" stroke-width="1.51"/><path d="M2139,4L1972,146L2243,92Z" fill="#9e5ae8" stroke="#9e5ae8" stroke-width="1.51"/><path d="M1970,729L2065,906L2223,733Z" fill="#b137ec" stroke="#b137ec" stroke-width="1.51"/><path d="M2065,906L1940,1104L2156,1171Z" fill="#b83ee8" stroke="#b83ee8" stroke-width="1.51"/><path d="M1959,335L1970,575L2217,415Z" fill="#a63af0" stroke="#a63af0" stroke-width="1.51"/><path d="M2072,-196L2030,-26L2139,4Z" fill="#9964e6" stroke="#9964e6" stroke-width="1.51"/><path d="M2156,1171L1970,1315L2207,1243Z" fill="#be44e3" stroke="#be44e3" stroke-width="1.51"/><path d="M1281,-273L1437,-195L1855,-227Z" fill="#8866eb" stroke="#8866eb" stroke-width="1.51"/><path d="M2030,-26L1972,146L2139,4Z" fill="#9c5ce9" stroke="#9c5ce9" stroke-width="1.51"/><path d="M1940,1104L1970,1315L2156,1171Z" fill="#bc41e5" stroke="#bc41e5" stroke-width="1.51"/><path d="M1877,1080L1940,1104L2065,906Z" fill="#b63ce9" stroke="#b63ce9" stroke-width="1.51"/><path d="M1855,-227L2030,-26L2072,-196Z" fill="#9567e6" stroke="#9567e6" stroke-width="1.51"/><path d="M1764,957L1877,1080L2065,906Z" fill="#b339eb" stroke="#b339eb" stroke-width="1.51"/><path d="M1970,729L1814,755L2065,906Z" fill="#af34ed" stroke="#af34ed" stroke-width="1.51"/><path d="M1814,755L1764,957L2065,906Z" fill="#b035ed" stroke="#b035ed" stroke-width="1.51"/><path d="M743,1245L462,1269L853,1252Z" fill="#a542ee" stroke="#a542ee" stroke-width="1.51"/><path d="M1959,335L1846,558L1970,575Z" fill="#a532f2" stroke="#a532f2" stroke-width="1.51"/><path d="M1871,120L1972,146L2030,-26Z" fill="#9b58ea" stroke="#9b58ea" stroke-width="1.51"/><path d="M1821,14L1871,120L2030,-26Z" fill="#995aea" stroke="#995aea" stroke-width="1.51"/><path d="M1855,-227L1821,14L2030,-26Z" fill="#9562e8" stroke="#9562e8" stroke-width="1.51"/><path d="M472,-254L1052,-208L1281,-273Z" fill="#7961f1" stroke="#7961f1" stroke-width="1.51"/><path d="M1437,-195L1560,-153L1855,-227Z" fill="#8b65ea" stroke="#8b65ea" stroke-width="1.51"/><path d="M1871,120L1792,358L1959,335Z" fill="#9f48ee" stroke="#9f48ee" stroke-width="1.51"/><path d="M1792,358L1846,558L1959,335Z" fill="#a23af1" stroke="#a23af1" stroke-width="1.51"/><path d="M1940,1104L1877,1080L1970,1315Z" fill="#b93fe7" stroke="#b93fe7" stroke-width="1.51"/><path d="M1877,1080L1778,1353L1970,1315Z" fill="#ba40e6" stroke="#ba40e6" stroke-width="1.51"/><path d="M1970,575L1846,558L1970,729Z" fill="#a92ff1" stroke="#a92ff1" stroke-width="1.51"/><path d="M1846,558L1814,755L1970,729Z" fill="#aa30f1" stroke="#aa30f1" stroke-width="1.51"/><path d="M1871,120L1959,335L1972,146Z" fill="#9e4fed" stroke="#9e4fed" stroke-width="1.51"/><path d="M1572,1270L1302,1324L1778,1353Z" fill="#b63ce9" stroke="#b63ce9" stroke-width="1.51"/><path d="M1625,-93L1821,14L1855,-227Z" fill="#9262ea" stroke="#9262ea" stroke-width="1.51"/><path d="M1628,118L1792,358L1871,120Z" fill="#9a4cef" stroke="#9a4cef" stroke-width="1.51"/><path d="M1635,1128L1778,1353L1877,1080Z" fill="#b73de9" stroke="#b73de9" stroke-width="1.51"/><path d="M1764,957L1635,1128L1877,1080Z" fill="#b339eb" stroke="#b339eb" stroke-width="1.51"/><path d="M1597,582L1590,680L1814,755Z" fill="#a52bf3" stroke="#a52bf3" stroke-width="1.51"/><path d="M1597,582L1814,755L1846,558Z" fill="#a52bf3" stroke="#a52bf3" stroke-width="1.51"/><path d="M1821,14L1628,118L1871,120Z" fill="#9755ec" stroke="#9755ec" stroke-width="1.51"/><path d="M1628,118L1586,283L1792,358Z" fill="#9a46f1" stroke="#9a46f1" stroke-width="1.51"/><path d="M1792,358L1597,582L1846,558Z" fill="#a12ef4" stroke="#a12ef4" stroke-width="1.51"/><path d="M1560,-153L1625,-93L1855,-227Z" fill="#8e64ea" stroke="#8e64ea" stroke-width="1.51"/><path d="M1590,680L1601,987L1764,957Z" fill="#ab31ef" stroke="#ab31ef" stroke-width="1.51"/><path d="M1635,1128L1572,1270L1778,1353Z" fill="#b73ce8" stroke="#b73ce8" stroke-width="1.51"/><path d="M1590,680L1764,957L1814,755Z" fill="#aa30f0" stroke="#aa30f0" stroke-width="1.51"/><path d="M1625,-93L1628,118L1821,14Z" fill="#9459ec" stroke="#9459ec" stroke-width="1.51"/><path d="M1601,987L1635,1128L1764,957Z" fill="#b036ed" stroke="#b036ed" stroke-width="1.51"/><path d="M1586,283L1597,582L1792,358Z" fill="#9e37f3" stroke="#9e37f3" stroke-width="1.51"/><path d="M1406,1256L1302,1324L1572,1270Z" fill="#b339eb" stroke="#b339eb" stroke-width="1.51"/><path d="M1586,283L1449,339L1597,582Z" fill="#9a36f5" stroke="#9a36f5" stroke-width="1.51"/><path d="M1449,339L1437,543L1597,582Z" fill="#9c2af7" stroke="#9c2af7" stroke-width="1.51"/><path d="M1590,680L1451,881L1601,987Z" fill="#a82ef1" stroke="#a82ef1" stroke-width="1.51"/><path d="M1401,175L1586,283L1628,118Z" fill="#954af1" stroke="#954af1" stroke-width="1.51"/><path d="M1625,-93L1415,-53L1628,118Z" fill="#9059ee" stroke="#9059ee" stroke-width="1.51"/><path d="M1415,-53L1401,175L1628,118Z" fill="#9151f1" stroke="#9151f1" stroke-width="1.51"/><path d="M1601,987L1430,1098L1635,1128Z" fill="#b035ed" stroke="#b035ed" stroke-width="1.51"/><path d="M1430,1098L1572,1270L1635,1128Z" fill="#b238ec" stroke="#b238ec" stroke-width="1.51"/><path d="M1560,-153L1415,-53L1625,-93Z" fill="#8d5eed" stroke="#8d5eed" stroke-width="1.51"/><path d="M1430,1098L1406,1256L1572,1270Z" fill="#b137ec" stroke="#b137ec" stroke-width="1.51"/><path d="M1376,734L1451,881L1590,680Z" fill="#a42af4" stroke="#a42af4" stroke-width="1.51"/><path d="M1437,543L1590,680L1597,582Z" fill="#a026f6" stroke="#a026f6" stroke-width="1.51"/><path d="M1451,881L1430,1098L1601,987Z" fill="#ac32ef" stroke="#ac32ef" stroke-width="1.51"/><path d="M1401,175L1449,339L1586,283Z" fill="#9643f3" stroke="#9643f3" stroke-width="1.51"/><path d="M1437,543L1376,734L1590,680Z" fill="#a026f6" stroke="#a026f6" stroke-width="1.51"/><path d="M-75,-256L103,-231L472,-254Z" fill="#647de9" stroke="#647de9" stroke-width="1.51"/><path d="M1437,-195L1415,-53L1560,-153Z" fill="#8a60ed" stroke="#8a60ed" stroke-width="1.51"/><path d="M472,-254L840,-161L1052,-208Z" fill="#7765f0" stroke="#7765f0" stroke-width="1.51"/><path d="M1078,1239L853,1252L1302,1324Z" fill="#ac32ef" stroke="#ac32ef" stroke-width="1.51"/><path d="M1234,147L1401,175L1415,-53Z" fill="#8e4ff3" stroke="#8e4ff3" stroke-width="1.51"/><path d="M1259,1092L1406,1256L1430,1098Z" fill="#ae34ee" stroke="#ae34ee" stroke-width="1.51"/><path d="M1276,587L1376,734L1437,543Z" fill="#9d22f8" stroke="#9d22f8" stroke-width="1.51"/><path d="M1227,414L1276,587L1437,543Z" fill="#9822fa" stroke="#9822fa" stroke-width="1.51"/><path d="M1227,414L1437,543L1449,339Z" fill="#972ff7" stroke="#972ff7" stroke-width="1.51"/><path d="M1401,175L1227,414L1449,339Z" fill="#943cf5" stroke="#943cf5" stroke-width="1.51"/><path d="M1305,962L1430,1098L1451,881Z" fill="#a92ff1" stroke="#a92ff1" stroke-width="1.51"/><path d="M1376,734L1305,962L1451,881Z" fill="#a52bf3" stroke="#a52bf3" stroke-width="1.51"/><path d="M1178,33L1234,147L1415,-53Z" fill="#8b51f2" stroke="#8b51f2" stroke-width="1.51"/><path d="M1234,147L1227,414L1401,175Z" fill="#9041f6" stroke="#9041f6" stroke-width="1.51"/><path d="M1305,962L1259,1092L1430,1098Z" fill="#aa30f0" stroke="#aa30f0" stroke-width="1.51"/><path d="M1281,-273L1415,-53L1437,-195Z" fill="#8661ee" stroke="#8661ee" stroke-width="1.51"/><path d="M1217,727L1305,962L1376,734Z" fill="#a228f5" stroke="#a228f5" stroke-width="1.51"/><path d="M1259,1092L1302,1324L1406,1256Z" fill="#af35ed" stroke="#af35ed" stroke-width="1.51"/><path d="M1281,-273L1178,33L1415,-53Z" fill="#885bf0" stroke="#885bf0" stroke-width="1.51"/><path d="M1068,-59L1178,33L1281,-273Z" fill="#845af1" stroke="#845af1" stroke-width="1.51"/><path d="M1276,587L1217,727L1376,734Z" fill="#9e23f8" stroke="#9e23f8" stroke-width="1.51"/><path d="M1101,336L1227,414L1234,147Z" fill="#903bf8" stroke="#903bf8" stroke-width="1.51"/><path d="M1106,175L1101,336L1234,147Z" fill="#8d41f7" stroke="#8d41f7" stroke-width="1.51"/><path d="M1052,-208L1068,-59L1281,-273Z" fill="#815ef1" stroke="#815ef1" stroke-width="1.51"/><path d="M1259,1092L1078,1239L1302,1324Z" fill="#ad33ef" stroke="#ad33ef" stroke-width="1.51"/><path d="M1217,727L992,954L1305,962Z" fill="#a127f5" stroke="#a127f5" stroke-width="1.51"/><path d="M1085,1113L1259,1092L1305,962Z" fill="#a82ef2" stroke="#a82ef2" stroke-width="1.51"/><path d="M992,954L1085,1113L1305,962Z" fill="#a52bf3" stroke="#a52bf3" stroke-width="1.51"/><path d="M1085,1113L1078,1239L1259,1092Z" fill="#aa2ff1" stroke="#aa2ff1" stroke-width="1.51"/><path d="M1075,670L1217,727L1276,587Z" fill="#9a1ff9" stroke="#9a1ff9" stroke-width="1.51"/><path d="M1083,559L1075,670L1276,587Z" fill="#971cfb" stroke="#971cfb" stroke-width="1.51"/><path d="M1227,414L1083,559L1276,587Z" fill="#951ffb" stroke="#951ffb" stroke-width="1.51"/><path d="M1075,670L992,954L1217,727Z" fill="#9d22f8" stroke="#9d22f8" stroke-width="1.51"/><path d="M1178,33L1106,175L1234,147Z" fill="#8b4af5" stroke="#8b4af5" stroke-width="1.51"/><path d="M1101,336L1083,559L1227,414Z" fill="#922bfa" stroke="#922bfa" stroke-width="1.51"/><path d="M472,-254L719,-155L840,-161Z" fill="#7567ef" stroke="#7567ef" stroke-width="1.51"/><path d="M902,791L992,954L1075,670Z" fill="#9a20f9" stroke="#9a20f9" stroke-width="1.51"/><path d="M1068,-59L1106,175L1178,33Z" fill="#884ff4" stroke="#884ff4" stroke-width="1.51"/><path d="M831,378L839,544L1083,559Z" fill="#8f22fd" stroke="#8f22fd" stroke-width="1.51"/><path d="M831,378L1083,559L1101,336Z" fill="#8e29fc" stroke="#8e29fc" stroke-width="1.51"/><path d="M848,151L831,378L1101,336Z" fill="#893bfa" stroke="#893bfa" stroke-width="1.51"/><path d="M1068,-59L863,-23L1106,175Z" fill="#844ff6" stroke="#844ff6" stroke-width="1.51"/><path d="M863,-23L848,151L1106,175Z" fill="#854af7" stroke="#854af7" stroke-width="1.51"/><path d="M848,151L1101,336L1106,175Z" fill="#8a3ff9" stroke="#8a3ff9" stroke-width="1.51"/><path d="M1052,-208L840,-161L1068,-59Z" fill="#7e5af3" stroke="#7e5af3" stroke-width="1.51"/><path d="M838,1116L853,1252L1078,1239Z" fill="#a730f1" stroke="#a730f1" stroke-width="1.51"/><path d="M839,544L1075,670L1083,559Z" fill="#9317fd" stroke="#9317fd" stroke-width="1.51"/><path d="M838,1116L1078,1239L1085,1113Z" fill="#a72df2" stroke="#a72df2" stroke-width="1.51"/><path d="M992,954L838,1116L1085,1113Z" fill="#a329f5" stroke="#a329f5" stroke-width="1.51"/><path d="M840,-161L863,-23L1068,-59Z" fill="#7f58f4" stroke="#7f58f4" stroke-width="1.51"/><path d="M839,544L902,791L1075,670Z" fill="#951dfb" stroke="#951dfb" stroke-width="1.51"/><path d="M902,791L812,887L992,954Z" fill="#9c28f7" stroke="#9c28f7" stroke-width="1.51"/><path d="M812,887L838,1116L992,954Z" fill="#a02df5" stroke="#a02df5" stroke-width="1.51"/><path d="M729,225L831,378L848,151Z" fill="#8645f8" stroke="#8645f8" stroke-width="1.51"/><path d="M730,27L848,151L863,-23Z" fill="#8153f5" stroke="#8153f5" stroke-width="1.51"/><path d="M608,773L812,887L902,791Z" fill="#9831f7" stroke="#9831f7" stroke-width="1.51"/><path d="M839,544L678,553L902,791Z" fill="#9129fb" stroke="#9129fb" stroke-width="1.51"/><path d="M678,553L608,773L902,791Z" fill="#9331f8" stroke="#9331f8" stroke-width="1.51"/><path d="M812,887L628,959L838,1116Z" fill="#9e37f3" stroke="#9e37f3" stroke-width="1.51"/><path d="M628,959L690,1158L838,1116Z" fill="#a03cf1" stroke="#a03cf1" stroke-width="1.51"/><path d="M831,378L678,553L839,544Z" fill="#8d2ffb" stroke="#8d2ffb" stroke-width="1.51"/><path d="M838,1116L743,1245L853,1252Z" fill="#a539f0" stroke="#a539f0" stroke-width="1.51"/><path d="M840,-161L719,-155L863,-23Z" fill="#7b5ef2" stroke="#7b5ef2" stroke-width="1.51"/><path d="M719,-155L730,27L863,-23Z" fill="#7c5bf3" stroke="#7c5bf3" stroke-width="1.51"/><path d="M690,1158L743,1245L838,1116Z" fill="#a33cf0" stroke="#a33cf0" stroke-width="1.51"/><path d="M730,27L729,225L848,151Z" fill="#8250f6" stroke="#8250f6" stroke-width="1.51"/><path d="M729,225L610,314L831,378Z" fill="#8744f8" stroke="#8744f8" stroke-width="1.51"/><path d="M610,314L678,553L831,378Z" fill="#893cfa" stroke="#893cfa" stroke-width="1.51"/><path d="M608,773L628,959L812,887Z" fill="#9839f5" stroke="#9839f5" stroke-width="1.51"/><path d="M103,-231L282,-207L472,-254Z" fill="#6977eb" stroke="#6977eb" stroke-width="1.51"/><path d="M545,726L608,773L678,553Z" fill="#9039f8" stroke="#9039f8" stroke-width="1.51"/><path d="M628,959L545,1085L690,1158Z" fill="#9e41f0" stroke="#9e41f0" stroke-width="1.51"/><path d="M719,-155L503,-45L730,27Z" fill="#7961f2" stroke="#7961f2" stroke-width="1.51"/><path d="M520,222L729,225L730,27Z" fill="#8152f5" stroke="#8152f5" stroke-width="1.51"/><path d="M690,1158L462,1269L743,1245Z" fill="#a345ed" stroke="#a345ed" stroke-width="1.51"/><path d="M520,222L610,314L729,225Z" fill="#834ef6" stroke="#834ef6" stroke-width="1.51"/><path d="M503,-45L520,222L730,27Z" fill="#7d5cf3" stroke="#7d5cf3" stroke-width="1.51"/><path d="M472,-254L503,-45L719,-155Z" fill="#746aef" stroke="#746aef" stroke-width="1.51"/><path d="M454,355L424,506L610,314Z" fill="#8549f7" stroke="#8549f7" stroke-width="1.51"/><path d="M608,773L511,874L628,959Z" fill="#963ff4" stroke="#963ff4" stroke-width="1.51"/><path d="M610,314L424,506L678,553Z" fill="#8840f9" stroke="#8840f9" stroke-width="1.51"/><path d="M545,1085L462,1269L690,1158Z" fill="#a047ee" stroke="#a047ee" stroke-width="1.51"/><path d="M424,506L545,726L678,553Z" fill="#8c3bf9" stroke="#8c3bf9" stroke-width="1.51"/><path d="M511,874L545,1085L628,959Z" fill="#9a43f2" stroke="#9a43f2" stroke-width="1.51"/><path d="M545,726L511,874L608,773Z" fill="#933ff5" stroke="#933ff5" stroke-width="1.51"/><path d="M520,222L454,355L610,314Z" fill="#834ff6" stroke="#834ff6" stroke-width="1.51"/><path d="M503,-45L341,11L520,222Z" fill="#7a61f2" stroke="#7a61f2" stroke-width="1.51"/><path d="M341,11L299,208L520,222Z" fill="#7b5ff2" stroke="#7b5ff2" stroke-width="1.51"/><path d="M298,1171L462,1269L545,1085Z" fill="#9e4eec" stroke="#9e4eec" stroke-width="1.51"/><path d="M511,874L285,873L545,1085Z" fill="#9748f1" stroke="#9748f1" stroke-width="1.51"/><path d="M285,873L298,1171L545,1085Z" fill="#994eee" stroke="#994eee" stroke-width="1.51"/><path d="M349,759L511,874L545,726Z" fill="#9244f5" stroke="#9244f5" stroke-width="1.51"/><path d="M424,506L349,759L545,726Z" fill="#8c43f6" stroke="#8c43f6" stroke-width="1.51"/><path d="M472,-254L282,-207L503,-45Z" fill="#7070ed" stroke="#7070ed" stroke-width="1.51"/><path d="M282,-207L341,11L503,-45Z" fill="#726cee" stroke="#726cee" stroke-width="1.51"/><path d="M299,208L454,355L520,222Z" fill="#7f56f4" stroke="#7f56f4" stroke-width="1.51"/><path d="M349,759L285,873L511,874Z" fill="#924af3" stroke="#924af3" stroke-width="1.51"/><path d="M336,477L349,759L424,506Z" fill="#8845f7" stroke="#8845f7" stroke-width="1.51"/><path d="M336,477L424,506L454,355Z" fill="#854af7" stroke="#854af7" stroke-width="1.51"/><path d="M299,208L237,304L454,355Z" fill="#7e58f4" stroke="#7e58f4" stroke-width="1.51"/><path d="M298,1171L227,1302L462,1269Z" fill="#9e55ea" stroke="#9e55ea" stroke-width="1.51"/><path d="M237,304L336,477L454,355Z" fill="#8152f5" stroke="#8152f5" stroke-width="1.51"/><path d="M336,477L149,558L349,759Z" fill="#874af6" stroke="#874af6" stroke-width="1.51"/><path d="M285,873L131,969L298,1171Z" fill="#9555ee" stroke="#9555ee" stroke-width="1.51"/><path d="M237,304L143,344L336,477Z" fill="#7f57f4" stroke="#7f57f4" stroke-width="1.51"/><path d="M166,36L299,208L341,11Z" fill="#7667f0" stroke="#7667f0" stroke-width="1.51"/><path d="M282,-207L166,36L341,11Z" fill="#706fee" stroke="#706fee" stroke-width="1.51"/><path d="M167,742L285,873L349,759Z" fill="#8e4ff3" stroke="#8e4ff3" stroke-width="1.51"/><path d="M149,558L167,742L349,759Z" fill="#8a4ef4" stroke="#8a4ef4" stroke-width="1.51"/><path d="M143,344L149,558L336,477Z" fill="#8152f5" stroke="#8152f5" stroke-width="1.51"/><path d="M103,-231L166,36L282,-207Z" fill="#6b76eb" stroke="#6b76eb" stroke-width="1.51"/><path d="M131,969L36,1165L298,1171Z" fill="#975aeb" stroke="#975aeb" stroke-width="1.51"/><path d="M97,103L237,304L299,208Z" fill="#7962f1" stroke="#7962f1" stroke-width="1.51"/><path d="M166,36L97,103L299,208Z" fill="#7568ef" stroke="#7568ef" stroke-width="1.51"/><path d="M36,1165L227,1302L298,1171Z" fill="#9b5ae9" stroke="#9b5ae9" stroke-width="1.51"/><path d="M167,742L131,969L285,873Z" fill="#9053f0" stroke="#9053f0" stroke-width="1.51"/><path d="M36,1165L67,1320L227,1302Z" fill="#9b5fe7" stroke="#9b5fe7" stroke-width="1.51"/><path d="M97,103L143,344L237,304Z" fill="#7a61f1" stroke="#7a61f1" stroke-width="1.51"/><path d="M-27,124L-22,301L97,103Z" fill="#736bee" stroke="#736bee" stroke-width="1.51"/><path d="M97,103L-22,301L143,344Z" fill="#7765f1" stroke="#7765f1" stroke-width="1.51"/><path d="M-22,301L-84,508L143,344Z" fill="#7a5ff2" stroke="#7a5ff2" stroke-width="1.51"/><path d="M-84,508L-137,692L149,558Z" fill="#8158f3" stroke="#8158f3" stroke-width="1.51"/><path d="M143,344L-84,508L149,558Z" fill="#7f58f4" stroke="#7f58f4" stroke-width="1.51"/><path d="M103,-231L-70,-1L166,36Z" fill="#6b77eb" stroke="#6b77eb" stroke-width="1.51"/><path d="M-70,-1L97,103L166,36Z" fill="#6f71ed" stroke="#6f71ed" stroke-width="1.51"/><path d="M-100,887L131,969L167,742Z" fill="#8d59ef" stroke="#8d59ef" stroke-width="1.51"/><path d="M149,558L-137,692L167,742Z" fill="#8555f2" stroke="#8555f2" stroke-width="1.51"/><path d="M-137,692L-100,887L167,742Z" fill="#885bf0" stroke="#885bf0" stroke-width="1.51"/><path d="M-75,-256L-70,-1L103,-231Z" fill="#637ee9" stroke="#637ee9" stroke-width="1.51"/><path d="M-100,887L-123,1141L36,1165Z" fill="#9262ea" stroke="#9262ea" stroke-width="1.51"/><path d="M-100,887L36,1165L131,969Z" fill="#915eec" stroke="#915eec" stroke-width="1.51"/><path d="M-70,-1L-27,124L97,103Z" fill="#6f71ed" stroke="#6f71ed" stroke-width="1.51"/><path d="M36,1165L-40,1332L67,1320Z" fill="#9a63e6" stroke="#9a63e6" stroke-width="1.51"/><path d="M-123,1141L-40,1332L36,1165Z" fill="#9664e7" stroke="#9664e7" stroke-width="1.51"/><path d="M-75,-256L-213,-55L-70,-1Z" fill="#637fe8" stroke="#637fe8" stroke-width="1.51"/><path d="M-123,1141L-278,1273L-40,1332Z" fill="#966ae5" stroke="#966ae5" stroke-width="1.51"/><path d="M-70,-1L-213,161L-27,124Z" fill="#6c74ec" stroke="#6c74ec" stroke-width="1.51"/><path d="M-279,399L-84,508L-22,301Z" fill="#7863f1" stroke="#7863f1" stroke-width="1.51"/><path d="M-213,161L-279,399L-22,301Z" fill="#736cee" stroke="#736cee" stroke-width="1.51"/><path d="M-27,124L-213,161L-22,301Z" fill="#716eee" stroke="#716eee" stroke-width="1.51"/><path d="M-210,1145L-123,1141L-100,887Z" fill="#9065e9" stroke="#9065e9" stroke-width="1.51"/><path d="M-216,-266L-213,-55L-75,-256Z" fill="#5c85e6" stroke="#5c85e6" stroke-width="1.51"/><path d="M-210,1145L-278,1273L-123,1141Z" fill="#926ae6" stroke="#926ae6" stroke-width="1.51"/><path d="M-320,875L-210,1145L-100,887Z" fill="#8c66ea" stroke="#8c66ea" stroke-width="1.51"/><path d="M-315,523L-137,692L-84,508Z" fill="#7d5df2" stroke="#7d5df2" stroke-width="1.51"/><path d="M-213,-55L-213,161L-70,-1Z" fill="#6879ea" stroke="#6879ea" stroke-width="1.51"/><path d="M-137,692L-320,875L-100,887Z" fill="#8663ed" stroke="#8663ed" stroke-width="1.51"/><path d="M-319,727L-320,875L-137,692Z" fill="#8364ed" stroke="#8364ed" stroke-width="1.51"/><path d="M-279,399L-315,523L-84,508Z" fill="#7863f1" stroke="#7863f1" stroke-width="1.51"/><path d="M-315,523L-319,727L-137,692Z" fill="#7e62ef" stroke="#7e62ef" stroke-width="1.51"/><path d="M-279,399L-213,161L-213,-55Z" fill="#6c74ec" stroke="#6c74ec" stroke-width="1.51"/><path d="M-320,875L-278,1273L-210,1145Z" fill="#8e6be7" stroke="#8e6be7" stroke-width="1.51"/><path d="M-315,523L-279,399L-216,-266Z" fill="#6d73ec" stroke="#6d73ec" stroke-width="1.51"/><path d="M-216,-266L-279,399L-213,-55Z" fill="#657be9" stroke="#657be9" stroke-width="1.51"/></svg>